<?xml version="1.0" encoding="UTF-8"?>
<svg id="svg2" xmlns="http://www.w3.org/2000/svg" version="1.1" xmlns:cc="http://creativecommons.org/ns#" xmlns:dc="http://purl.org/dc/elements/1.1/" xmlns:inkscape="http://www.inkscape.org/namespaces/inkscape" xmlns:rdf="http://www.w3.org/1999/02/22-rdf-syntax-ns#" xmlns:sodipodi="http://sodipodi.sourceforge.net/DTD/sodipodi-0.dtd" xmlns:svg="http://www.w3.org/2000/svg" viewBox="0 0 88.62 88.66">
  <!-- Generator: Adobe Illustrator 30.4.0, SVG Export Plug-In . SVG Version: 2.1.4 Build 226)  -->
  <sodipodi:namedview id="namedview6" bordercolor="#666666" borderopacity="1" gridtolerance="10" guidetolerance="10" inkscape:current-layer="svg2" inkscape:cx="44.311001" inkscape:cy="44.330002" inkscape:pageopacity="0" inkscape:pageshadow="2" inkscape:window-height="1056" inkscape:window-maximized="1" inkscape:window-width="1873" inkscape:window-x="1967" inkscape:window-y="24" inkscape:zoom="2.6618542" objecttolerance="10" pagecolor="#ffffff" showgrid="false"/>
  <path id="path4" d="M44.31,0C37.59,0,31.22,1.51,25.52,4.18c0-.02.01-.04.02-.06-.58.27-1.15.55-1.71.84.03,0,.06.01.09.02-.1.06-.21.11-.31.16-.01-.02-.02-.03-.03-.04-.33.17-.65.34-.97.52.03,0,.06.02.09.02-.34.19-.68.39-1.02.59-.02-.01-.04-.02-.05-.04.19-.11.38-.23.57-.34-.19.11-.39.22-.58.34,0,0,0,0,0,0-.08.05-.16.1-.24.14.04,0,.06.01.09.01-.17.1-.34.21-.51.32.01-.03.02-.07.03-.1,0,0,0,0,0,0,0,0,0,0,0,0-.03.02-.06.04-.1.06.02-.01.04-.02.06-.03-.07.04-.14.09-.21.13.02-.01.04-.03.06-.04-.19.12-.39.24-.58.36.13-.08.26-.16.39-.24-.13.08-.26.17-.39.25,0,.02,0,.05,0,.08-.01,0-.02.02-.04.02-.01-.02-.02-.04-.03-.06.02-.01.04-.03.06-.04,0,0,0,0,0-.01-.02.02-.05.03-.07.05,0,0,0,0,0,0-1.22.79-2.4,1.63-3.53,2.54,0,.03.02.05.03.07C6.5,17.84,0,30.32,0,44.33c0,24.48,19.84,44.33,44.31,44.33s44.31-19.85,44.31-44.33C88.62,19.85,68.78,0,44.31,0ZM76.12,14.79c.04.08.1.14.14.22-1.16.34-1.06-.58-2.05-.41.41.72.71,2.19,1.64,1.23.08.55.56.17,1-.23,6.28,7.12,10.28,16.3,10.81,26.41h-1.59c2.58,4.01-2.92,5.74-5.32,7.36.73,1.69,2.34-.52,3.27.41-.4,4.1-3.3,5.7-5.32,8.18.1,3.11.22,3.95,0,6.95-4.16,2.84-4.43,11.6-11.04,10.63-1.1-2.99-1.14-7.04-2.46-9.82,2.72-3.92-1.11-6.55-.82-11.45-.55-.68-2.15-.31-2.04-1.64-2.55.88-4.39.52-6.95.82-1.84-1.02-2.58-3.15-4.09-4.5,1.38-3.96-.87-8.16,3.68-9.82-.22-4.87,7.52-5.64,10.63-4.5v1.63c1.61.31,2.37,1.45,3.68,2.04-.07-1.02.63-1.28,1.23-1.64,1.25.79.94,1.92,2.86,1.23.72.23,2.4-.49,2.45.41.61-.35.59-1.32.82-2.05-.38-1.4-2.52-1.03-3.68-1.63-.56-.52-.56-1.93,0-2.46-2.6-.19-.42,1.97-2.04,2.46h-.82c.35-1.31-.64-1.26-.82-2.04-1.22-.1-1.55,2.77-2.86,1.23,2.91-.48-1.65-4.12-2.04-2.45-.07-.61.15-1.51-.41-1.64-1.45.45-2.39,1.42-3.68,2.04v1.64c-.36.18-.73.36-.82.82h-3.68c-.02-.52-.52-.57-.41-1.23.6-.9-.05-3.05,1.23-3.27,1.18-.57,2.08,1.12,2.45,0h.41c.18-1.54-.81-1.92-1.23-2.86.04-.77,1.35-.28,1.23-1.23,3.49-.19,3.59-3.77,5.73-5.32-.34.48-.54,1.1-.41,2.04,1.51.38.74-2.16.41-2.45-.95-.13-1.57.07-2.04.41-.57-.52-.25-1.93-.82-2.46,2.59-2.32,3.36-6.45,7.77-6.95,1.32.32,2.5.78,3.52,1.4.86.79,1.68,1.61,2.48,2.47ZM57.85,19.51c2.13.46,1.54,3.64,3.27,4.5v.82c-.98-.17-.89.75-2.04.41-.77-.09-.9.46-1.63.41,1.65-2.18-.47-3.98.41-6.14ZM57.44,24.41h-2.05c-.16-1.52.33-2.4,1.64-2.45.47.48.46,1.45.41,2.45ZM50.9,15.83c-.36-.86-1.25-1.21-1.23-2.45,1.64.4,2.46.4,4.09,0,.08.33.41.41.41.82-.06,1.58-1.6,1.68-3.27,1.64ZM48.44,18.28c-.63,1.69-2.62,2.01-4.09,2.86-.46-.08-.23-.41,0-.41-.06-.76-1.38-.25-1.64-.82-.41-5,6.17-6.16,5.73-1.64ZM79.53,69.41c-1.03-3.14,1.24-4.39,2.45-6.95,1.21.97-.49,2.47-.41,3.68-.44.76-.99,1.41-1.21,2.4-.02.02-.03.04-.04.07-.44.1-.62.45-.79.81ZM50.97,1.41s-.04.06-.07.1c.26.05.56.06.88.05.69.12,1.37.25,2.04.4-.66.3-.84,1.09-1.69,1.19-.3,1.25.42,1.49.41,2.45-.7.16-1.05-.61-1.23,0,1.4,1.81-2.01,3.39,0,4.91-2.98,1.52-7.18,1.82-9,4.5-.88,1.02-1.29,2.53-2.45,3.27-2.92-.84-3.48-5.66-2.6-7.5.08-.06.14-.15.15-.26-.05.08-.1.17-.15.26-.22.15-.6.1-.67-.27,1.92-5.43-4.68-3.84-5.73-6.95.68-.55,2.6.15,2.45-1.23-.06,0-.11.02-.17.03,3.56-.95,7.3-1.46,11.16-1.46,2.27,0,4.49.17,6.67.51ZM23.91,5.99c.83.27,1.51.43,2.45-.39-.53-.03-1.17.04-1.71,0,1.93-.98,3.94-1.82,6.02-2.51-1.59.82-2.63,2.18-3.49,3.73-1.91.19-3.4.38-4.61-.09.44-.26.89-.51,1.34-.75ZM21.95,7.1c.09.2.27.31.73.13-.43.93-1.24,1.49-2.45,1.64.3-.4.44-.72.5-1,.4-.26.81-.52,1.22-.77ZM17.21,10.4s.1.07.15.1c-.1,1.13-1.52.93-2.04,1.64,2.74.81,2.86-2.45,4.5-.41.17-.98-.75-.89-.41-2.04.52-.02.57-.52,1.23-.41.2,2.33,1.53,1.28,2.04,2.86.09-.46.45-.64.82-.82.43-1.52-1.53-.65-1.23-2.05.06-2.26,3.45-1.18,4.91-2.05,0,.68,1.13.23,1.23.82-.54-.05-2.96-.06-1.64.41,4.18-.33,4.11,2.78,6.54,4.91-.8-.12-.81.55-1.23.82-.54.06-1.23-1.66-1.63-.41.9.06.88,1.03.82,2.05-2.03-.67-.23.05-1.23.82-1.53-.79-2.7-1.93-4.5-2.45,1-.36,2.36-.37,2.45-1.64.3-1.26-1.12-.78-.82-2.05-.6,0-3.35-.15-2.05.41.34,1.83-1.17,1.83-1.64,2.86.6.35,1.3.61,1.23,1.64-.33-.22-.66-.43-1.23-.41-.51.1-.41.81,0,.82-.07.69-1.94-.19-1.64-1.23-1.94.65-2.89,2.29-4.09,3.68.35,1.56,1.91,1.91,3.27,2.45.33.22.67.43,1.23.41-.3,1.25.42,1.49.41,2.45,1.4-3.29,2.59-2.44,2.45-7.77.35.07.39-.16.41-.41.4-.03.97,1.08,2.46.82,1.04.32.22,2.51,1.63,2.45,1.32.51.31-1.32,1.64-.82,1.28,3.82,3.51,5.76,4.09,9.41-1.25.3-1.49-.42-2.45-.41-1.43.37-.7-1.33-.41-1.64.59-.23,1-.64,1.23-1.23-1.54.39-2.77,2.54-4.09.82.34,1.16-.58,1.06-.41,2.05-.08.35.16.39.41.41.32.09.81,0,.82.41v.41c-1.94,1.26-7.02,2.71-7.77,7.36-1.2.03-1.52.94-2.04,1.64-.87.37.81,2.86-.41,3.68-.99-.51-1.32-1.68-1.64-2.86-3.72-2.16-10.46,4.66-4.09,6.14h.41c-.15-1.3,2.24-1.83,2.45-.41-.61.35-.88,1.03-.82,2.04-.07.89,1.45.19,2.05.41-.11,1.81-.87,3.38,1.23,3.68.32.09.81.01.82.41,1.61-.17,1.75-1.8,3.27-2.04.92.85,2.64,1.2,5.32,1.23.57,2.56,3.68,2.59,5.32,4.09v2.04c2.92.76,5.08,2.28,7.77,3.27-.38,3.84-2.92,5.54-2.86,9.82-1.1.54-2.18,1.1-3.27,1.64-.38,2.69-2.15,5.94-4.5,5.32-.17.99.75.89.41,2.05-4.19,1.18-3.26,3.73-3.93,7.06-1.07-.43-2.11-.89-3.13-1.4-1.62-3.19,1.09-9.07.11-14.89-.76-4.53-7.21-7.14-6.07-12.54.73-.89,1.58-1.66,2.02-2.83-2.94-4.33-8.72-5.84-12.94-8.9.12-2.28-.71-3.6-2.02-4.45.07,1.15.74,1.69.81,2.83-2.85-2.78-3.88-7.17-4-11.33,2.63-8.26,7.67-15.45,14.28-20.74ZM25.54,44.05c.14,1.76-1.49,1.1-2.45.82.37-.72,1.28-.9,2.45-.82ZM18.18,42.41c1.11-1.79,3.9.72,4.91,1.64-2.23.04-2.56-1.81-4.91-1.64Z"/>
</svg>